<svg width="24" height="29" viewBox="0 0 24 29" fill="none" xmlns="http://www.w3.org/2000/svg">
<g filter="url(#filter0_d_83_586)">
<path d="M16.6002 5.82C16.6002 5.82 17.1102 6.32 16.6002 5.82C15.9166 5.03962 15.5399 4.03743 15.5402 3H12.4502V15.4C12.4263 16.071 12.143 16.7066 11.6599 17.1729C11.1768 17.6393 10.5316 17.8999 9.86016 17.9C8.44016 17.9 7.26016 16.74 7.26016 15.3C7.26016 13.58 8.92016 12.29 10.6302 12.82V9.66C7.18016 9.2 4.16016 11.88 4.16016 15.3C4.16016 18.63 6.92016 21 9.85016 21C12.9902 21 15.5402 18.45 15.5402 15.3V9.01C16.7932 9.90985 18.2975 10.3926 19.8402 10.39V7.3C19.8402 7.3 17.9602 7.39 16.6002 5.82Z" fill="#E7E7E3"/>
</g>
<defs>
<filter id="filter0_d_83_586" x="-4" y="0" width="32" height="32" filterUnits="userSpaceOnUse" color-interpolation-filters="sRGB">
<feFlood flood-opacity="0" result="BackgroundImageFix"/>
<feColorMatrix in="SourceAlpha" type="matrix" values="0 0 0 0 0 0 0 0 0 0 0 0 0 0 0 0 0 0 127 0" result="hardAlpha"/>
<feOffset dy="4"/>
<feGaussianBlur stdDeviation="2"/>
<feComposite in2="hardAlpha" operator="out"/>
<feColorMatrix type="matrix" values="0 0 0 0 0 0 0 0 0 0 0 0 0 0 0 0 0 0 0.25 0"/>
<feBlend mode="normal" in2="BackgroundImageFix" result="effect1_dropShadow_83_586"/>
<feBlend mode="normal" in="SourceGraphic" in2="effect1_dropShadow_83_586" result="shape"/>
</filter>
</defs>
</svg>
