<svg width="32" height="32" viewBox="0 0 32 32" fill="none" xmlns="http://www.w3.org/2000/svg">
<rect width="32" height="32" rx="16" fill="#FFA52F"/>
<path d="M19.4453 16.2891C19.4453 18.2734 19.125 19.7474 18.4844 20.7109C17.849 21.6745 16.875 22.1562 15.5625 22.1562C14.2917 22.1562 13.3281 21.6589 12.6719 20.6641C12.0156 19.6693 11.6875 18.2109 11.6875 16.2891C11.6875 14.2734 12.0052 12.7891 12.6406 11.8359C13.2812 10.8776 14.2552 10.3984 15.5625 10.3984C16.8385 10.3984 17.8047 10.8984 18.4609 11.8984C19.1172 12.8984 19.4453 14.362 19.4453 16.2891ZM13.5469 16.2891C13.5469 17.8464 13.7057 18.9583 14.0234 19.625C14.3464 20.2917 14.8594 20.625 15.5625 20.625C16.2656 20.625 16.7786 20.2865 17.1016 19.6094C17.4297 18.9323 17.5938 17.8255 17.5938 16.2891C17.5938 14.7578 17.4297 13.651 17.1016 12.9688C16.7786 12.2812 16.2656 11.9375 15.5625 11.9375C14.8594 11.9375 14.3464 12.2734 14.0234 12.9453C13.7057 13.6172 13.5469 14.7318 13.5469 16.2891Z" fill="#232321"/>
</svg>
